<?xml version="1.0" encoding="UTF-8" standalone="no"?>
<!-- Created with Inkscape (http://www.inkscape.org/) -->

<svg
   width="106.61822mm"
   height="20.560663mm"
   viewBox="0 0 106.61822 20.560663"
   version="1.1"
   id="svg1"
   inkscape:version="1.4.4 (dcaf3e7, 2026-05-05)"
   sodipodi:docname="kerjabagus_icon_white.svg"
   inkscape:export-filename="kerjabagus_icon_white.svg"
   inkscape:export-xdpi="96"
   inkscape:export-ydpi="96"
   xmlns:inkscape="http://www.inkscape.org/namespaces/inkscape"
   xmlns:sodipodi="http://sodipodi.sourceforge.net/DTD/sodipodi-0.dtd"
   xmlns="http://www.w3.org/2000/svg"
   xmlns:svg="http://www.w3.org/2000/svg">
  <sodipodi:namedview
     id="namedview1"
     pagecolor="#ffffff"
     bordercolor="#000000"
     borderopacity="0.25"
     inkscape:showpageshadow="2"
     inkscape:pageopacity="0.0"
     inkscape:pagecheckerboard="0"
     inkscape:deskcolor="#d1d1d1"
     inkscape:document-units="mm"
     inkscape:zoom="1.0494604"
     inkscape:cx="15.722366"
     inkscape:cy="33.826908"
     inkscape:window-width="1920"
     inkscape:window-height="1017"
     inkscape:window-x="-8"
     inkscape:window-y="-8"
     inkscape:window-maximized="1"
     inkscape:current-layer="layer1">
    <inkscape:page
       x="0"
       y="0"
       width="106.61822"
       height="20.560663"
       id="page2"
       margin="0"
       bleed="0" />
  </sodipodi:namedview>
  <defs
     id="defs1">
    <inkscape:path-effect
       effect="fillet_chamfer"
       id="path-effect2"
       nodesatellites_param="F,0,0,1,0,0,0,1 @ F,0,0,1,0,0,0,1 @ F,0,0,1,0,0,0,1 @ F,0,0,1,0,0,0,1 @ F,0,0,1,0,0,0,1 @ F,0,0,1,0,0,0,1 @ F,0,0,1,0,0,0,1 @ F,0,0,1,0,0,0,1 @ F,0,0,1,0,0,0,1 @ F,0,0,1,0,0,0,1 @ F,0,0,1,0,0,0,1 @ F,0,0,1,0,0,0,1 @ F,0,0,1,0,0,0,1 @ F,0,0,1,0,0,0,1 @ F,0,0,1,0,0,0,1 @ F,0,0,1,0,0,0,1 @ F,0,0,1,0,0,0,1 @ F,0,0,1,0,0,0,1 @ F,0,0,1,0,0,0,1 @ F,0,0,1,0,0,0,1 @ F,0,0,1,0,0,0,1 | F,0,0,1,0,0,0,1 @ F,0,0,1,0,0,0,1 @ F,0,0,1,0,0,0,1 @ F,0,0,1,0,0,0,1 @ F,0,0,1,0,0,0,1 @ F,0,0,1,0,0,0,1 @ F,0,0,1,0,0,0,1 @ F,0,0,1,0,0,0,1 @ F,0,0,1,0,0,0,1 @ F,0,0,1,0,0,0,1 | F,0,0,1,0,0,0,1 @ F,0,0,1,0,0,0,1 @ F,0,0,1,0,0,0,1 @ F,0,0,1,0,0,0,1 @ F,0,0,1,0,0,0,1 @ F,0,0,1,0,0,0,1 @ F,0,0,1,0,0,0,1 @ F,0,0,1,0,0,0,1 @ F,0,0,1,0,0,0,1 @ F,0,0,1,0,0,0,1 @ F,0,0,1,0,0,0,1 @ F,0,0,1,0,0,0,1 @ F,0,0,1,0,0,0,1 @ F,0,0,1,0,0,0,1 @ F,0,0,1,0,0,0,1 @ F,0,0,1,0,0,0,1 @ F,0,0,1,0,0,0,1 @ F,0,0,1,0,0,0,1 @ F,0,0,1,0,0,0,1 @ F,0,0,1,0,0,0,1 @ F,0,0,1,0,0,0,1 @ F,0,0,1,0,0,0,1 @ F,0,0,1,0,0,0,1 @ F,0,0,1,0,0,0,1 @ F,0,0,1,0,0,0,1 @ F,0,0,1,0,0,0,1 @ F,0,0,1,0,0,0,1 @ F,0,0,1,0,0,0,1 @ F,0,0,1,0,0,0,1 @ F,0,0,1,0,0,0,1 @ F,0,0,1,0,0,0,1 @ F,0,0,1,0,0,0,1 @ F,0,0,1,0,0,0,1 | F,0,0,1,0,0,0,1 @ F,0,0,1,0,0,0,1 @ F,0,0,1,0,0,0,1 @ F,0,0,1,0,0,0,1 @ F,0,0,1,0,0,0,1 @ F,0,0,1,0,0,0,1 @ F,0,0,1,0,0,0,1 @ F,0,0,1,0,0,0,1 @ F,0,0,1,0,0,0,1 @ F,0,0,1,0,0,0,1 @ F,0,0,1,0,0,0,1 @ F,0,0,1,0,0,0,1 @ F,0,0,1,0,0,0,1 @ F,0,0,1,0,0,0,1 @ F,0,0,1,0,0,0,1 @ F,0,0,1,0,0,0,1 @ F,0,0,1,0,0,0,1 @ F,0,0,1,0,0,0,1 @ F,0,0,1,0,0,0,1 @ F,0,0,1,0,0,0,1 @ F,0,0,1,0,0,0,1 @ F,0,0,1,0,0,0,1 @ F,0,0,1,0,0,0,1 @ F,0,0,1,0,0,0,1 @ F,0,0,1,0,0,0,1 @ F,0,0,1,0,0,0,1 @ F,0,0,1,0,0,0,1 @ F,0,0,1,0,0,0,1 @ F,0,0,1,0,0,0,1 @ F,0,0,1,0,0,0,1 @ F,0,0,1,0,0,0,1 @ F,0,0,1,0,0,0,1 @ F,0,0,1,0,0,0,1 @ F,0,0,1,0,0,0,1 @ F,0,0,1,0,0,0,1 @ F,0,0,1,0,0,0,1 @ F,0,0,1,0,0,0,1 @ F,0,0,1,0,0,0,1 @ F,0,0,1,0,0,0,1 @ F,0,0,1,0,0,0,1 @ F,0,0,1,0,0,0,1 @ F,0,0,1,0,0,0,1 @ F,0,0,1,0,0,0,1 @ F,0,0,1,0,0,0,1 @ F,0,0,1,0,0,0,1 @ F,0,0,1,0,0,0,1 @ F,0,0,1,0,0,0,1 | F,0,0,1,0,0,0,1 @ F,0,0,1,0,0,0,1 @ F,0,0,1,0,0,0,1 @ F,0,0,1,0,0,0,1 @ F,0,0,1,0,0,0,1 @ F,0,0,1,0,0,0,1 @ F,0,0,1,0,0,0,1 @ F,0,0,1,0,0,0,1 @ F,0,0,1,0,0,0,1 @ F,0,0,1,0,0,0,1 @ F,0,0,1,0,0,0,1 @ F,0,0,1,0,0,0,1 @ F,0,0,1,0,0,0,1 @ F,0,0,1,0,0,0,1 @ F,0,0,1,0,0,0,1 @ F,0,0,1,0,0,0,1 @ F,0,0,1,0,0,0,1 @ F,0,0,1,0,0,0,1 @ F,0,0,1,0,0,0,1 @ F,0,0,1,0,0,0,1 @ F,0,0,1,0,0,0,1 @ F,0,0,1,0,0,0,1 @ F,0,0,1,0,0,0,1 @ F,0,0,1,0,0,0,1 @ F,0,0,1,0,0,0,1 @ F,0,0,1,0,0,0,1 @ F,0,0,1,0,0,0,1 @ F,0,0,1,0,0,0,1 @ F,0,0,1,0,0,0,1 @ F,0,0,1,0,0,0,1 @ F,0,0,1,0,0,0,1 @ F,0,0,1,0,0,0,1 @ F,0,0,1,0,0,0,1 | F,0,0,1,0,0,0,1 @ F,0,0,1,0,0,0,1 @ F,0,0,1,0,0,0,1 @ F,0,0,1,0,0,0,1 @ F,0,0,1,0,0,0,1 @ F,0,0,1,0,0,0,1 @ F,0,0,1,0,0,0,1 @ F,0,0,1,0,0,0,1 @ F,0,0,1,0,0,0,1 @ F,0,0,1,0,0,0,1 @ F,0,0,1,0,0,0,1 @ F,0,0,1,0,0,0,1 @ F,0,0,1,0,0,0,1 @ F,0,0,1,0,0,0,1 @ F,0,0,1,0,0,0,1 @ F,0,0,1,0,0,0,1 @ F,0,0,1,0,0,0,1 @ F,0,0,1,0,0,0,1 @ F,0,0,1,0,0,0,1 @ F,0,0,1,0,0,0,1 @ F,0,0,1,0,0,0,1 @ F,0,0,1,0,0,0,1 @ F,0,0,1,0,0,0,1 @ F,0,0,1,0,0,0,1 @ F,0,0,1,0,0,0,1 @ F,0,0,1,0,0,0,1 @ F,0,0,1,0,0,0,1 @ F,0,0,1,0,0,0,1 @ F,0,0,1,0,0,0,1 @ F,0,0,1,0,0,0,1 | F,0,0,1,0,0,0,1 @ F,0,0,1,0,0,0,1 @ F,0,0,1,0,0,0,1 @ F,0,0,1,0,0,0,1 @ F,0,0,1,0,0,0,1 @ F,0,0,1,0,0,0,1 @ F,0,0,1,0,0,0,1 @ F,0,0,1,0,0,0,1 | F,0,0,1,0,0,0,1 @ F,0,0,1,0,0,0,1 @ F,0,0,1,0,0,0,1 @ F,0,0,1,0,0,0,1 @ F,0,0,1,0,0,0,1 @ F,0,0,1,0,0,0,1 @ F,0,0,1,0,0,0,1 @ F,0,0,1,0,0,0,1 @ F,0,0,1,0,0,0,1 @ F,0,0,1,0,0,0,1 | F,0,0,1,0,0,0,1 @ F,0,0,1,0,0,0,1 @ F,0,0,1,0,0,0,1 @ F,0,0,1,0,0,0,1 @ F,0,0,1,0,0,0,1 @ F,0,0,1,0,0,0,1 @ F,0,0,1,0,0,0,1"
       is_visible="true"
       lpeversion="1"
       radius="0"
       unit="px"
       method="auto"
       mode="F"
       chamfer_steps="1"
       flexible="false"
       use_knot_distance="true"
       apply_no_radius="true"
       apply_with_radius="true"
       only_selected="false"
       hide_knots="false" />
  </defs>
  <g
     inkscape:label="Layer 1"
     inkscape:groupmode="layer"
     id="layer1"
     transform="translate(-56.96489,-138.21984)">
    <text
       xml:space="preserve"
       style="font-style:normal;font-variant:normal;font-weight:normal;font-stretch:normal;font-size:22.5778px;font-family:'Times New Roman';-inkscape-font-specification:'Times New Roman, Normal';font-variant-ligatures:normal;font-variant-caps:normal;font-variant-numeric:normal;font-variant-east-asian:normal;writing-mode:lr-tb;direction:ltr;fill:#ffffff;stroke-width:0.264583;fill-opacity:1"
       x="56.590065"
       y="153.90742"
       id="text1"><tspan
         sodipodi:role="line"
         id="tspan1"
         style="font-style:normal;font-variant:normal;font-weight:normal;font-stretch:normal;font-size:22.5778px;font-family:'Times New Roman';-inkscape-font-specification:'Times New Roman, Normal';font-variant-ligatures:normal;font-variant-caps:normal;font-variant-numeric:normal;font-variant-east-asian:normal;fill:#ffffff;stroke-width:0.264583;fill-opacity:1"
         x="56.590065"
         y="153.90742">Kerja</tspan></text>
    <path
       id="text1-9"
       style="font-size:22.5778px;font-family:'Times New Roman';-inkscape-font-specification:'Times New Roman, Normal';fill:#ffffff;stroke-width:0.264583;fill-opacity:1"
       d="m 108.30691,138.95844 v 0.40773 h 0.56224 c 0.56592,0 0.99235,0.16186 1.27899,0.48524 0.21313,0.24253 0.31987,0.82682 0.31987,1.75286 v 9.6573 c 0,0.83784 -0.0847,1.38556 -0.25373,1.64279 -0.27193,0.39688 -0.72042,0.59531 -1.34513,0.59531 h -0.56224 v 0.40773 h 7.0559 c 1.68304,0 2.93229,-0.15434 3.74809,-0.46302 0.82315,-0.31603 1.47008,-0.81212 1.94045,-1.48828 0.47037,-0.68351 0.70538,-1.39658 0.70538,-2.13889 0,-0.97749 -0.35628,-1.80431 -1.06918,-2.48047 -0.51447,-0.48507 -1.29019,-0.83785 -2.32648,-1.05833 0.8893,-0.28664 1.56178,-0.72358 2.01745,-1.31155 0.45567,-0.59531 0.68368,-1.2678 0.68368,-2.01745 0,-0.87459 -0.29013,-1.6463 -0.87075,-2.3151 -0.58061,-0.67616 -1.42247,-1.1467 -2.52491,-1.41129 -0.7276,-0.17638 -1.69372,-0.26458 -2.89905,-0.26458 z m 6.26215,0.73846 c 1.36701,0 2.4068,0.30868 3.1197,0.92604 0.71291,0.61737 1.06919,1.36351 1.06919,2.2381 0,0.56592 -0.14332,1.08756 -0.42995,1.56528 -0.28663,0.47772 -0.70154,0.83452 -1.2454,1.06971 -0.53652,0.22784 -1.34129,0.34158 -2.41432,0.34158 -0.41893,0 -0.80478,-0.011 -1.15756,-0.0331 -0.34542,-0.0294 -0.65411,-0.07 -0.92604,-0.12144 v -5.74331 c 0.58796,-0.1617 1.24942,-0.24288 1.98438,-0.24288 z m 13.30616,3.81475 c -1.16858,0 -2.07607,0.26458 -2.72283,0.79375 -0.64676,0.52917 -0.97048,1.10944 -0.97048,1.7415 0,0.33072 0.0847,0.59181 0.25373,0.78289 0.17638,0.1911 0.40037,0.28681 0.67231,0.28681 0.27928,0 0.50379,-0.0922 0.67283,-0.27595 0.17638,-0.18374 0.26458,-0.4443 0.26458,-0.78238 l -0.0222,-0.63976 c 0,-0.32338 0.13981,-0.61001 0.41909,-0.85989 0.27193,-0.24988 0.63924,-0.37466 1.10226,-0.37466 0.61002,0 1.07304,0.18741 1.38906,0.56224 0.32338,0.37483 0.48525,1.06586 0.48525,2.07274 v 0.39688 c -1.7345,0.63206 -2.97674,1.16824 -3.72639,1.6092 -0.7423,0.44098 -1.26395,0.91151 -1.56528,1.41129 -0.22049,0.36012 -0.33073,0.78657 -0.33073,1.27899 0,0.77905 0.22399,1.40743 0.67231,1.88515 0.45567,0.47772 1.03244,0.71624 1.73064,0.71624 0.44832,0 0.87126,-0.0917 1.26814,-0.27544 0.26458,-0.12494 0.91502,-0.58796 1.95131,-1.38906 0.007,0.60266 0.11759,1.02911 0.33073,1.27899 0.21314,0.24988 0.49976,0.37466 0.85989,0.37466 0.74965,0 1.53588,-0.55122 2.35903,-1.65365 v -0.61753 c -0.44097,0.44097 -0.73863,0.70957 -0.89297,0.80512 -0.0882,0.0515 -0.19091,0.077 -0.30851,0.077 -0.11024,0 -0.20945,-0.0366 -0.29765,-0.11007 -0.0809,-0.0735 -0.14,-0.21681 -0.17674,-0.42994 -0.0367,-0.22049 -0.0548,-0.8123 -0.0548,-1.77509 v -3.42873 c 0,-0.97749 -0.0661,-1.6239 -0.19844,-1.93993 -0.20579,-0.48507 -0.5255,-0.84187 -0.95912,-1.06971 -0.57326,-0.30133 -1.30839,-0.45165 -2.20503,-0.45165 z m 10.64948,0 c -1.17593,0 -2.14256,0.35978 -2.89956,1.08004 -0.74966,0.72025 -1.12448,1.58015 -1.12448,2.57969 0,0.6541 0.16536,1.25344 0.49609,1.7973 0.33073,0.53652 0.80478,0.95545 1.42214,1.25677 -0.757,0.63206 -1.24207,1.12063 -1.45521,1.46606 -0.20579,0.34543 -0.30851,0.64711 -0.30851,0.90434 0,0.22784 0.0772,0.43328 0.23151,0.61702 0.16169,0.17639 0.49855,0.48785 0.81597,0.60668 1.38404,0.51816 2.76676,0.29751 4.4204,0.34158 1.13184,0.0294 1.88901,0.12459 2.27118,0.28629 0.37483,0.16168 0.56224,0.43379 0.56224,0.81597 0,0.52917 -0.3162,1.02526 -0.94826,1.48828 -0.62471,0.47037 -1.59836,0.70538 -2.92127,0.70538 -1.38907,0 -2.4509,-0.22749 -3.18585,-0.68316 -0.42628,-0.26459 -0.63976,-0.57326 -0.63976,-0.92604 0,-0.27193 0.0882,-0.5696 0.26459,-0.89297 0.0954,-0.17483 1.29618,1.36962 1.44095,1.17975 l 0.60186,-1.28092 c -1.58377,1.30501 -1.70029,-1.58042 -2.80115,-0.20008 -0.3879,0.48637 -0.83651,1.21994 -0.96145,1.49188 -0.0808,0.17638 -0.12093,0.35277 -0.12093,0.52916 0,0.39688 0.27561,0.77922 0.82683,1.1467 0.97748,0.63941 2.17511,0.95912 3.59357,0.95912 1.84474,0 3.34054,-0.53669 4.48707,-1.60972 0.77905,-0.7276 1.1684,-1.50683 1.1684,-2.33733 0,-0.60267 -0.20544,-1.10978 -0.61701,-1.52135 -0.40423,-0.41158 -0.94844,-0.66513 -1.63195,-0.76068 -0.44832,-0.0662 -1.42948,-0.11726 -2.94348,-0.154 -0.82315,-0.0221 -1.33728,-0.0481 -1.54306,-0.0775 -0.35278,-0.0514 -0.59182,-0.13614 -0.71676,-0.25373 -0.11759,-0.1176 -0.17621,-0.23886 -0.17621,-0.3638 0,-0.14699 0.0551,-0.32338 0.16536,-0.52917 0.1176,-0.21313 0.33808,-0.45918 0.66146,-0.73846 0.52182,0.14699 1.03244,0.22066 1.53221,0.22066 1.21268,0 2.17931,-0.33475 2.89956,-1.00356 0.72026,-0.6688 1.08004,-1.47357 1.08004,-2.41432 0,-0.82314 -0.20544,-1.49913 -0.61702,-2.0283 h 1.31155 c 0.31601,0 0.49992,-0.011 0.55139,-0.0331 0.0588,-0.0221 0.0994,-0.0516 0.12144,-0.0884 0.0367,-0.0735 0.0548,-0.20579 0.0548,-0.39687 0,-0.16906 -0.0221,-0.2863 -0.0661,-0.35244 -0.022,-0.0441 -0.0586,-0.0737 -0.11007,-0.0884 -0.0515,-0.0221 -0.23536,-0.0331 -0.55139,-0.0331 h -2.13837 c -0.70556,-0.47037 -1.5399,-0.70538 -2.50269,-0.70538 z m 21.23281,0 c -0.90399,0 -1.64262,0.27911 -2.21588,0.83768 -0.56592,0.55856 -0.84905,1.25309 -0.84905,2.08359 0,0.63941 0.16537,1.16857 0.4961,1.5875 0.33073,0.42627 1.02928,0.90382 2.09496,1.43299 1.06569,0.52916 1.77474,0.96664 2.12752,1.31206 0.36013,0.34544 0.54002,0.77187 0.54002,1.27899 0,0.41892 -0.16135,0.77871 -0.48473,1.08004 -0.31603,0.29398 -0.72794,0.44132 -1.23506,0.44132 -0.72026,0 -1.37069,-0.26108 -1.95131,-0.7829 -0.58061,-0.52181 -0.97347,-1.29702 -1.17925,-2.32596 h -0.3638 v 3.60495 h 0.3638 c 0.0955,-0.19109 0.22783,-0.2868 0.39687,-0.2868 0.15434,0 0.35277,0.0366 0.59531,0.11007 0.79375,0.22048 1.4993,0.33073 2.11667,0.33073 0.85989,0 1.6351,-0.27911 2.32596,-0.83768 0.6982,-0.56591 1.04748,-1.30804 1.04748,-2.22674 0,-1.19062 -0.74615,-2.14973 -2.23811,-2.87734 l -1.60972,-0.7829 c -0.6982,-0.33808 -1.16123,-0.65778 -1.38906,-0.95911 -0.23519,-0.29399 -0.35243,-0.64676 -0.35243,-1.05833 0,-0.33073 0.15784,-0.63189 0.47387,-0.90383 0.31603,-0.27193 0.73145,-0.40824 1.24592,-0.40824 0.67616,0 1.23088,0.19493 1.6645,0.58446 0.44097,0.38953 0.80126,1.12465 1.08055,2.20503 h 0.3638 v -3.43958 h -0.3638 c -0.0882,0.17637 -0.16538,0.29012 -0.23151,0.34158 -0.0661,0.0515 -0.15836,0.077 -0.27595,0.077 -0.12495,0 -0.37448,-0.0551 -0.74931,-0.16536 -0.56591,-0.16904 -1.04748,-0.25322 -1.44436,-0.25322 z m -15.4342,0.29766 v 0.40772 c 0.52917,-0.007 0.89298,0.0403 1.09141,0.14315 0.20579,0.0955 0.36013,0.23535 0.46302,0.41909 0.10289,0.18374 0.15451,0.51447 0.15451,0.99219 v 4.50877 c 0,0.94075 0.0807,1.66835 0.24236,2.18281 0.1617,0.51447 0.44833,0.93741 0.8599,1.26814 0.41892,0.32338 0.91151,0.48473 1.47743,0.48473 0.50711,0 0.98868,-0.12126 1.44436,-0.3638 0.45567,-0.24254 1.11712,-0.83383 1.98437,-1.77457 v 2.13837 h 0.49609 l 3.02049,-1.2454 -0.15451,-0.38603 c -0.28663,0.12494 -0.54369,0.18759 -0.77153,0.18759 -0.16169,0 -0.305,-0.0516 -0.42995,-0.15451 -0.11758,-0.1029 -0.20578,-0.28279 -0.26458,-0.54002 -0.0515,-0.26459 -0.077,-0.98117 -0.077,-2.14974 v -6.11849 h -3.43958 v 0.40772 c 0.66146,0.0147 1.09491,0.12495 1.30069,0.33073 0.21314,0.19844 0.31988,0.5843 0.31988,1.15756 v 5.72161 c -0.55122,0.55857 -1.02928,0.93689 -1.4335,1.13533 -0.39688,0.19843 -0.75316,0.29766 -1.06919,0.29766 -0.46302,0 -0.85989,-0.14682 -1.19062,-0.4408 -0.32338,-0.29398 -0.48525,-0.91135 -0.48525,-1.85209 v -6.75772 z m -5.9862,0.23151 c 0.58797,0 1.06953,0.24253 1.44436,0.7276 0.50712,0.66146 0.76068,1.57647 0.76068,2.74505 0,0.89665 -0.17989,1.55409 -0.54002,1.97301 -0.36013,0.41893 -0.81965,0.62839 -1.37821,0.62839 -0.58797,0 -1.07304,-0.24254 -1.45521,-0.72761 -0.49977,-0.63941 -0.74982,-1.53938 -0.74982,-2.70061 0,-0.89665 0.1839,-1.56212 0.55138,-1.99574 0.36748,-0.43363 0.82298,-0.65009 1.36684,-0.65009 z m -23.80113,2.55746 c 1.05099,0 1.93293,0.15435 2.64584,0.46303 0.7129,0.30868 1.22703,0.7311 1.54306,1.26762 0.31603,0.53652 0.47438,1.09525 0.47438,1.67586 0,0.88194 -0.34927,1.62408 -1.04748,2.22674 -0.6982,0.59532 -1.71244,0.89297 -3.0427,0.89297 -0.8305,0 -1.67185,-0.0992 -2.5244,-0.29766 v -6.12934 c 0.19844,-0.0367 0.459,-0.0623 0.78238,-0.077 0.32338,-0.0147 0.71326,-0.0222 1.16892,-0.0222 z m 14.88282,1.28985 v 3.84731 c -0.91134,0.73496 -1.64647,1.10277 -2.20504,1.10277 -0.41157,0 -0.77537,-0.17288 -1.0914,-0.51831 -0.31604,-0.35277 -0.47388,-0.79375 -0.47388,-1.32292 0,-0.41892 0.12477,-0.80477 0.37466,-1.15755 0.24988,-0.35278 0.6653,-0.69103 1.24592,-1.01441 0.32338,-0.18373 1.03996,-0.49592 2.14974,-0.93689 z"
       sodipodi:nodetypes="ccscsscsccsccscccsccscsssscscccsscscsccccscscccscsccsscccsccssccsscscccscccascscssccccscscscccccsccssscsccsccscsscscscscssccccscscscccssscccccsscscccsssscsscccccsccsccccsccscsccscssscssssssccsccssccscssccsscs"
       inkscape:path-effect="#path-effect2"
       inkscape:original-d="m 108.30691,138.95844 v 0.40773 h 0.56224 c 0.56592,0 0.99235,0.16186 1.27899,0.48524 0.21313,0.24253 0.31987,0.82682 0.31987,1.75286 v 9.6573 c 0,0.83784 -0.0847,1.38556 -0.25373,1.64279 -0.27193,0.39688 -0.72042,0.59531 -1.34513,0.59531 h -0.56224 v 0.40773 h 7.0559 c 1.68304,0 2.93229,-0.15434 3.74809,-0.46302 0.82315,-0.31603 1.47008,-0.81212 1.94045,-1.48828 0.47037,-0.68351 0.70538,-1.39658 0.70538,-2.13889 0,-0.97749 -0.35628,-1.80431 -1.06918,-2.48047 -0.51447,-0.48507 -1.29019,-0.83785 -2.32648,-1.05833 0.8893,-0.28664 1.56178,-0.72358 2.01745,-1.31155 0.45567,-0.59531 0.68368,-1.2678 0.68368,-2.01745 0,-0.87459 -0.29013,-1.6463 -0.87075,-2.3151 -0.58061,-0.67616 -1.42247,-1.1467 -2.52491,-1.41129 -0.7276,-0.17638 -1.69372,-0.26458 -2.89905,-0.26458 z m 6.26215,0.73846 c 1.36701,0 2.4068,0.30868 3.1197,0.92604 0.71291,0.61737 1.06919,1.36351 1.06919,2.2381 0,0.56592 -0.14332,1.08756 -0.42995,1.56528 -0.28663,0.47772 -0.70154,0.83452 -1.2454,1.06971 -0.53652,0.22784 -1.34129,0.34158 -2.41432,0.34158 -0.41893,0 -0.80478,-0.011 -1.15756,-0.0331 -0.34542,-0.0294 -0.65411,-0.07 -0.92604,-0.12144 v -5.74331 c 0.58796,-0.1617 1.24942,-0.24288 1.98438,-0.24288 z m 13.30616,3.81475 c -1.16858,0 -2.07607,0.26458 -2.72283,0.79375 -0.64676,0.52917 -0.97048,1.10944 -0.97048,1.7415 0,0.33072 0.0847,0.59181 0.25373,0.78289 0.17638,0.1911 0.40037,0.28681 0.67231,0.28681 0.27928,0 0.50379,-0.0922 0.67283,-0.27595 0.17638,-0.18374 0.26458,-0.4443 0.26458,-0.78238 l -0.0222,-0.63976 c 0,-0.32338 0.13981,-0.61001 0.41909,-0.85989 0.27193,-0.24988 0.63924,-0.37466 1.10226,-0.37466 0.61002,0 1.07304,0.18741 1.38906,0.56224 0.32338,0.37483 0.48525,1.06586 0.48525,2.07274 v 0.39688 c -1.7345,0.63206 -2.97674,1.16824 -3.72639,1.6092 -0.7423,0.44098 -1.26395,0.91151 -1.56528,1.41129 -0.22049,0.36012 -0.33073,0.78657 -0.33073,1.27899 0,0.77905 0.22399,1.40743 0.67231,1.88515 0.45567,0.47772 1.03244,0.71624 1.73064,0.71624 0.44832,0 0.87126,-0.0917 1.26814,-0.27544 0.26458,-0.12494 0.91502,-0.58796 1.95131,-1.38906 0.007,0.60266 0.11759,1.02911 0.33073,1.27899 0.21314,0.24988 0.49976,0.37466 0.85989,0.37466 0.74965,0 1.53588,-0.55122 2.35903,-1.65365 v -0.61753 c -0.44097,0.44097 -0.73863,0.70957 -0.89297,0.80512 -0.0882,0.0515 -0.19091,0.077 -0.30851,0.077 -0.11024,0 -0.20945,-0.0366 -0.29765,-0.11007 -0.0809,-0.0735 -0.14,-0.21681 -0.17674,-0.42994 -0.0367,-0.22049 -0.0548,-0.8123 -0.0548,-1.77509 v -3.42873 c 0,-0.97749 -0.0661,-1.6239 -0.19844,-1.93993 -0.20579,-0.48507 -0.5255,-0.84187 -0.95912,-1.06971 -0.57326,-0.30133 -1.30839,-0.45165 -2.20503,-0.45165 z m 10.64948,0 c -1.17593,0 -2.14256,0.35978 -2.89956,1.08004 -0.74966,0.72025 -1.12448,1.58015 -1.12448,2.57969 0,0.6541 0.16536,1.25344 0.49609,1.7973 0.33073,0.53652 0.80478,0.95545 1.42214,1.25677 -0.757,0.63206 -1.24207,1.12063 -1.45521,1.46606 -0.20579,0.34543 -0.30851,0.64711 -0.30851,0.90434 0,0.22784 0.0772,0.43328 0.23151,0.61702 0.16169,0.17639 0.49855,0.48785 0.81597,0.60668 1.38404,0.51816 2.76676,0.29751 4.4204,0.34158 1.13184,0.0294 1.88901,0.12459 2.27118,0.28629 0.37483,0.16168 0.56224,0.43379 0.56224,0.81597 0,0.52917 -0.3162,1.02526 -0.94826,1.48828 -0.62471,0.47037 -1.59836,0.70538 -2.92127,0.70538 -1.38907,0 -2.4509,-0.22749 -3.18585,-0.68316 -0.42628,-0.26459 -0.63976,-0.57326 -0.63976,-0.92604 0,-0.27193 0.0882,-0.5696 0.26459,-0.89297 0.0954,-0.17483 1.29618,1.36962 1.44095,1.17975 l 0.60186,-1.28092 c -1.58377,1.30501 -1.70029,-1.58042 -2.80115,-0.20008 -0.3879,0.48637 -0.83651,1.21994 -0.96145,1.49188 -0.0808,0.17638 -0.12093,0.35277 -0.12093,0.52916 0,0.39688 0.27561,0.77922 0.82683,1.1467 0.97748,0.63941 2.17511,0.95912 3.59357,0.95912 1.84474,0 3.34054,-0.53669 4.48707,-1.60972 0.77905,-0.7276 1.1684,-1.50683 1.1684,-2.33733 0,-0.60267 -0.20544,-1.10978 -0.61701,-1.52135 -0.40423,-0.41158 -0.94844,-0.66513 -1.63195,-0.76068 -0.44832,-0.0662 -1.42948,-0.11726 -2.94348,-0.154 -0.82315,-0.0221 -1.33728,-0.0481 -1.54306,-0.0775 -0.35278,-0.0514 -0.59182,-0.13614 -0.71676,-0.25373 -0.11759,-0.1176 -0.17621,-0.23886 -0.17621,-0.3638 0,-0.14699 0.0551,-0.32338 0.16536,-0.52917 0.1176,-0.21313 0.33808,-0.45918 0.66146,-0.73846 0.52182,0.14699 1.03244,0.22066 1.53221,0.22066 1.21268,0 2.17931,-0.33475 2.89956,-1.00356 0.72026,-0.6688 1.08004,-1.47357 1.08004,-2.41432 0,-0.82314 -0.20544,-1.49913 -0.61702,-2.0283 h 1.31155 c 0.31601,0 0.49992,-0.011 0.55139,-0.0331 0.0588,-0.0221 0.0994,-0.0516 0.12144,-0.0884 0.0367,-0.0735 0.0548,-0.20579 0.0548,-0.39687 0,-0.16906 -0.0221,-0.2863 -0.0661,-0.35244 -0.022,-0.0441 -0.0586,-0.0737 -0.11007,-0.0884 -0.0515,-0.0221 -0.23536,-0.0331 -0.55139,-0.0331 h -2.13837 c -0.70556,-0.47037 -1.5399,-0.70538 -2.50269,-0.70538 z m 21.23281,0 c -0.90399,0 -1.64262,0.27911 -2.21588,0.83768 -0.56592,0.55856 -0.84905,1.25309 -0.84905,2.08359 0,0.63941 0.16537,1.16857 0.4961,1.5875 0.33073,0.42627 1.02928,0.90382 2.09496,1.43299 1.06569,0.52916 1.77474,0.96664 2.12752,1.31206 0.36013,0.34544 0.54002,0.77187 0.54002,1.27899 0,0.41892 -0.16135,0.77871 -0.48473,1.08004 -0.31603,0.29398 -0.72794,0.44132 -1.23506,0.44132 -0.72026,0 -1.37069,-0.26108 -1.95131,-0.7829 -0.58061,-0.52181 -0.97347,-1.29702 -1.17925,-2.32596 h -0.3638 v 3.60495 h 0.3638 c 0.0955,-0.19109 0.22783,-0.2868 0.39687,-0.2868 0.15434,0 0.35277,0.0366 0.59531,0.11007 0.79375,0.22048 1.4993,0.33073 2.11667,0.33073 0.85989,0 1.6351,-0.27911 2.32596,-0.83768 0.6982,-0.56591 1.04748,-1.30804 1.04748,-2.22674 0,-1.19062 -0.74615,-2.14973 -2.23811,-2.87734 l -1.60972,-0.7829 c -0.6982,-0.33808 -1.16123,-0.65778 -1.38906,-0.95911 -0.23519,-0.29399 -0.35243,-0.64676 -0.35243,-1.05833 0,-0.33073 0.15784,-0.63189 0.47387,-0.90383 0.31603,-0.27193 0.73145,-0.40824 1.24592,-0.40824 0.67616,0 1.23088,0.19493 1.6645,0.58446 0.44097,0.38953 0.80126,1.12465 1.08055,2.20503 h 0.3638 v -3.43958 h -0.3638 c -0.0882,0.17637 -0.16538,0.29012 -0.23151,0.34158 -0.0661,0.0515 -0.15836,0.077 -0.27595,0.077 -0.12495,0 -0.37448,-0.0551 -0.74931,-0.16536 -0.56591,-0.16904 -1.04748,-0.25322 -1.44436,-0.25322 z m -15.4342,0.29766 v 0.40772 c 0.52917,-0.007 0.89298,0.0403 1.09141,0.14315 0.20579,0.0955 0.36013,0.23535 0.46302,0.41909 0.10289,0.18374 0.15451,0.51447 0.15451,0.99219 v 4.50877 c 0,0.94075 0.0807,1.66835 0.24236,2.18281 0.1617,0.51447 0.44833,0.93741 0.8599,1.26814 0.41892,0.32338 0.91151,0.48473 1.47743,0.48473 0.50711,0 0.98868,-0.12126 1.44436,-0.3638 0.45567,-0.24254 1.11712,-0.83383 1.98437,-1.77457 v 2.13837 h 0.49609 l 3.02049,-1.2454 -0.15451,-0.38603 c -0.28663,0.12494 -0.54369,0.18759 -0.77153,0.18759 -0.16169,0 -0.305,-0.0516 -0.42995,-0.15451 -0.11758,-0.1029 -0.20578,-0.28279 -0.26458,-0.54002 -0.0515,-0.26459 -0.077,-0.98117 -0.077,-2.14974 v -6.11849 h -3.43958 v 0.40772 c 0.66146,0.0147 1.09491,0.12495 1.30069,0.33073 0.21314,0.19844 0.31988,0.5843 0.31988,1.15756 v 5.72161 c -0.55122,0.55857 -1.02928,0.93689 -1.4335,1.13533 -0.39688,0.19843 -0.75316,0.29766 -1.06919,0.29766 -0.46302,0 -0.85989,-0.14682 -1.19062,-0.4408 -0.32338,-0.29398 -0.48525,-0.91135 -0.48525,-1.85209 v -6.75772 z m -5.9862,0.23151 c 0.58797,0 1.06953,0.24253 1.44436,0.7276 0.50712,0.66146 0.76068,1.57647 0.76068,2.74505 0,0.89665 -0.17989,1.55409 -0.54002,1.97301 -0.36013,0.41893 -0.81965,0.62839 -1.37821,0.62839 -0.58797,0 -1.07304,-0.24254 -1.45521,-0.72761 -0.49977,-0.63941 -0.74982,-1.53938 -0.74982,-2.70061 0,-0.89665 0.1839,-1.56212 0.55138,-1.99574 0.36748,-0.43363 0.82298,-0.65009 1.36684,-0.65009 z m -23.80113,2.55746 c 1.05099,0 1.93293,0.15435 2.64584,0.46303 0.7129,0.30868 1.22703,0.7311 1.54306,1.26762 0.31603,0.53652 0.47438,1.09525 0.47438,1.67586 0,0.88194 -0.34927,1.62408 -1.04748,2.22674 -0.6982,0.59532 -1.71244,0.89297 -3.0427,0.89297 -0.8305,0 -1.67185,-0.0992 -2.5244,-0.29766 v -6.12934 c 0.19844,-0.0367 0.459,-0.0623 0.78238,-0.077 0.32338,-0.0147 0.71326,-0.0222 1.16892,-0.0222 z m 14.88282,1.28985 v 3.84731 c -0.91134,0.73496 -1.64647,1.10277 -2.20504,1.10277 -0.41157,0 -0.77537,-0.17288 -1.0914,-0.51831 -0.31604,-0.35277 -0.47388,-0.79375 -0.47388,-1.32292 0,-0.41892 0.12477,-0.80477 0.37466,-1.15755 0.24988,-0.35278 0.6653,-0.69103 1.24592,-1.01441 0.32338,-0.18373 1.03996,-0.49592 2.14974,-0.93689 z" />
    <path
       id="rect2"
       style="fill:#ffffff;stroke-width:0.264583;fill-opacity:1"
       d="m 114.31517,146.39066 0.80221,0.0223 0.91364,2.89691 -1.09189,1.27019 -1.35933,-1.15877 z"
       sodipodi:nodetypes="cccccc" />
    <ellipse
       style="fill:#ffffff;fill-opacity:1;stroke-width:0.264583"
       id="path2"
       cx="113.69068"
       cy="143.01149"
       rx="0.21272093"
       ry="0.20484237" />
    <ellipse
       style="fill:#ffffff;fill-opacity:1;stroke-width:0.264583"
       id="path2-1"
       cx="115.83762"
       cy="142.98529"
       rx="0.21272093"
       ry="0.20484237" />
  </g>
</svg>
